<?xml version="1.0" encoding="utf-8"?>
<!-- Generator: Adobe Illustrator 18.1.1, SVG Export Plug-In . SVG Version: 6.00 Build 0)  -->
<svg version="1.1" id="Layer_1" xmlns="http://www.w3.org/2000/svg" xmlns:xlink="http://www.w3.org/1999/xlink" x="0px" y="0px"
	 viewBox="0 0 1224 792" enable-background="new 0 0 1224 792" xml:space="preserve">
<g>
	<g>
		<path fill="none" stroke="#CCCCCC" stroke-width="25.5562" stroke-miterlimit="10" d="M211.3,347.9c-1-45.4-1.9-90.9-2.9-136.3
			c-0.3-13.5-0.3-27.9,7.3-39.1c6.1-8.9,16.5-14.4,27.1-16.4c18.5-3.6,38.7,2.5,52.1,15.8c13.4,13.3,19.7,33.4,16.2,52"/>
		
			<rect x="298.1" y="212.4" transform="matrix(1 -8.281346e-03 8.281346e-03 1 -1.8334 2.5925)" fill="#CCCCCC" stroke="#CCCCCC" stroke-width="4.2802" stroke-miterlimit="10" width="28.1" height="20.6"/>
		
			<line fill="#BDCCD4" stroke="#BDCCD4" stroke-width="0" stroke-linecap="round" stroke-linejoin="round" x1="274.8" y1="330.9" x2="274.8" y2="330.9"/>
		<path fill="#EEE8AA" d="M284.8,575.4c0.1,0,0.3,0.1,0.4,0l-0.9-1.9h-0.5L284.8,575.4z"/>
		<polygon fill="#EEE8AA" points="284.3,574 159.9,310.2 283.9,574 		"/>
		
			<line fill="#EEE8AA" stroke="#EEE8FF" stroke-width="0" stroke-linecap="round" stroke-linejoin="round" x1="156" y1="306" x2="352" y2="306"/>
		
			<line fill="#EEE8AA" stroke="#EEE8FF" stroke-width="0" stroke-linecap="round" stroke-linejoin="round" x1="282" y1="574" x2="284" y2="574"/>
		
			<line fill="#EEE8AA" stroke="#EEE8FF" stroke-width="0" stroke-linecap="round" stroke-linejoin="round" x1="282.9" y1="573.2" x2="282.9" y2="573.2"/>
		
			<line fill="#EEE8AA" stroke="#EEE8FF" stroke-width="0" stroke-linecap="round" stroke-linejoin="round" x1="476" y1="574" x2="284" y2="574"/>
		
			<line fill="#EEE8AA" stroke="#EEE8FF" stroke-width="0" stroke-linecap="round" stroke-linejoin="round" x1="282" y1="574" x2="274" y2="574"/>
		
			<line fill="#EEE8AA" stroke="#EEE8FF" stroke-width="0" stroke-linecap="round" stroke-linejoin="round" x1="586" y1="306" x2="352" y2="306"/>
		
			<line fill="#EEE8AA" stroke="#EEE8FF" stroke-width="0" stroke-linecap="round" stroke-linejoin="round" x1="650" y1="306" x2="780" y2="306"/>
		
			<line fill="#EEE8AA" stroke="#EEE8FF" stroke-width="0" stroke-linecap="round" stroke-linejoin="round" x1="650" y1="306" x2="586" y2="306"/>
		
			<line fill="#EEE8AA" stroke="#EEE8FF" stroke-width="0" stroke-linecap="round" stroke-linejoin="round" x1="774" y1="572" x2="476" y2="572"/>
		
			<line fill="#EEE8AA" stroke="#EEE8FF" stroke-width="0" stroke-linecap="round" stroke-linejoin="round" x1="464" y1="572" x2="476" y2="572"/>
		<g>
			<path fill="#EEE8AA" d="M1064.1,309.5l-1.8,4.5H868.7l2.3-6H649.6h-61.3H159.9l124.4,266h191.6H284.3l0.9,1.6
				c-0.1,0.1-0.3,0.3-0.4,0.3l-1-1.8h-0.9h-9.7h9.7h0.9L159.9,308.4l-1.2-3.1l-5.6-13.9c10.6,46.8,21.1,92.5,31.7,139.4
				c8.6,38.2,17.6,79.8,34.3,109.6c16.2,28.9,41.6,47.4,64.1,37.6c0.2-1.1,0.4-2,0.6-2h1.1c0.1,0,0.3,0.1,0.4,0l0,0h192.1l1,1.7
				c-0.7,0.4-1.4-1.7-2.1,0.3h298H807h133.8c-0.7-2-1.4,0.2-2.1-0.2l1.5-2.9c0.2,0.3,0.4,1,0.6,2.1c22.5,9.8,47.9-9.5,64.1-38.3
				c16.7-29.6,25.7-70.3,34.3-108.2c10.6-46.6,21.1-91,31.7-137.5L1064.1,309.5z"/>
		</g>
		<polygon fill="#EEE8AA" points="466,572 475.7,572 773.6,572 808.7,572 773.6,572 475.7,572 		"/>
		<path fill="#EEE8AA" d="M726.9,574h212.2H726.9z"/>
		<path fill="#EEE8AA" d="M939.1,572h13.6H939.1z"/>
		
			<line fill="#EEE8AA" stroke="#EEE8FF" stroke-width="0" stroke-linecap="round" stroke-linejoin="round" x1="726" y1="574" x2="938" y2="574"/>
		
			<line fill="#EEE8AA" stroke="#EEE8FF" stroke-width="0" stroke-linecap="round" stroke-linejoin="round" x1="938" y1="572" x2="952" y2="572"/>
		
			<line fill="#EEE8AA" stroke="#EEE8FF" stroke-width="0" stroke-linecap="round" stroke-linejoin="round" x1="774" y1="572" x2="808" y2="572"/>
		
			<line fill="#EEE8AA" stroke="#EEE8FF" stroke-width="0" stroke-linecap="round" stroke-linejoin="round" x1="872" y1="306" x2="1064" y2="306"/>
		
			<line fill="#EEE8AA" stroke="#EEE8FF" stroke-width="0" stroke-linecap="round" stroke-linejoin="round" x1="844" y1="306" x2="872" y2="306"/>
		
			<line fill="#EEE8AA" stroke="#EEE8FF" stroke-width="0" stroke-linecap="round" stroke-linejoin="round" x1="780" y1="306" x2="844" y2="306"/>
		<g>
			<path fill="#FFFFFF" d="M301.8,214.3c0,0,1.3-0.2,3.2-0.4c1-0.1,2.1-0.2,3.3-0.2c1.2-0.1,2.5-0.1,3.7-0.1c2.6,0,5.1,0.1,7,0.3
				c1.9,0.2,3.2,0.4,3.2,0.4s-1.3,0.2-3.2,0.4c-1.9,0.2-4.5,0.3-7,0.3c-1.3,0-2.6,0-3.7-0.1c-1.2,0-2.3-0.1-3.3-0.2
				C303.1,214.5,301.8,214.3,301.8,214.3z"/>
		</g>
		<path fill="#EEE9AA" d="M988.7,576.3c0.3,6-20,11.4-45.2,12.1c-25.2,0.7-45.9-3.6-46.2-9.5c-0.3-6,20-11.4,45.2-12.1
			C967.8,566,988.4,570.3,988.7,576.3z"/>
		<path fill="#EEEEE0" stroke="#EEE9AA" stroke-width="1.7075" stroke-miterlimit="10" d="M993.4,600.4c7.2-1.5,15.1-4.9,19.2-9.9
			c2.9-3.6,3.3-7.4,2.3-10.6c-1-3.2-3.3-5.7-5.7-8.3c-1.7-1.9-3.5-3.9-6.1-5.1c-2.6-1.3-6.3-1.9-10.1-0.9c-3.8,0.9-7.3,3.2-9.8,5.8
			c-2.5,2.5-4.1,5.3-5.5,8c-2.2,4.3-4,8.7-3.8,12.7s2.6,7.6,7.5,8.8C984.8,601.7,989.1,601.3,993.4,600.4z"/>
		<path fill="#EEEEE0" stroke="#EEE9AA" stroke-width="1.7075" stroke-miterlimit="10" d="M891.9,613.1c7.2-1.5,15.1-4.9,19.2-9.9
			c2.9-3.6,3.3-7.4,2.3-10.6c-1-3.2-3.3-5.7-5.7-8.3c-1.7-1.9-3.5-3.9-6.1-5.1c-2.6-1.3-6.3-1.9-10.1-0.9c-3.8,0.9-7.3,3.2-9.8,5.8
			c-2.5,2.5-4.1,5.3-5.5,8c-2.2,4.3-4,8.7-3.8,12.7c0.2,4,2.6,7.6,7.5,8.8C883.3,614.4,887.6,614,891.9,613.1z"/>
		<path fill="#EEE9AA" stroke="#EEE9AA" stroke-width="3.4149" stroke-miterlimit="10" d="M920.5,569.6c2.5,8.2-3.7,17.2-15.4,22.6
			c14.5,3.6,25.6,11,29.2,19.6c-0.8-9.9,10-19.9,26.1-24.3C943,585.3,927.9,578.5,920.5,569.6z"/>
		<path fill="#EEE9AA" d="M994.1,576c-18.1-0.7-35.2-5.3-46.1-12.3c1,8.1-3.3,16.4-11.9,23.5c16.2,4.6,29.6,11.4,38.5,19.5
			C970.1,595.9,977.7,583.9,994.1,576z"/>
		<path fill="#EEE9AA" d="M889,590.7c-0.9-2.7-1.8-5.6-1.2-8.3c0.8-4.1,3.3-6,8.4-5.2c5.5,0.9,10.7,2.9,15,5.7
			c1,0.7,2.1,1.4,2.7,2.4c0.6,0.9,0.9,2.1,0.3,3.1c-1,1.7-3.6,2.1-5.9,2.7c-2.8,0.7-6.3,1.9-8.3,3.7c-1.6,1.5-2.4,4.1-3.2,6.3
			c-1.9,5.1-2,10.6-0.1,15.7c-4.7,2.5-11.8,2.2-16.9,0.2c-5.7-2.3-8.3-6.6-8.6-11.4c0.2,2.8,9.6,1.4,11.3,0.8
			c3.7-1.2,6.5-3.9,7.3-6.9c1.9-6.7-3-11.3-7.6-16.3c2.4-2.9,6.5-5,11-5.6"/>
		<path fill="#EEE9AA" d="M1014.7,587.6c-4.5,0.9-9.1,0.7-13.2-1.2c-0.1-0.1-0.2-0.2-0.3-0.3c-2.8-2.8-5.5-5.7-6.4-9.7
			c-0.7-3.3-0.1-7,2.5-9.3c0.4-0.4,1.7-1.7,2.3-1.6c-2.1-0.1-3.9-0.2-5.9,0.2c-2.1,0.4-4.1,0.9-6,1.8c-1.8,0.9-2.8,2.3-4.3,3.7
			c-1,0.9-2.1,2-2.2,3.4c0,1.2,0.9,2.3,1.7,3.2c0.7,0.8,2.3,1.8,1.5,2.9c4.9,2.1,9.3,4.4,12.8,8.6c1.1,1.3,2,2.7,2.7,4.2
			c0.4,0.9,1,3,1.8,3.4c0.4,0.2,1,0.2,1.5,0.2c2.4-0.4,4-2.5,5.8-3.8c0.9-0.6,2-0.8,2.9-1.3c0.8-0.5,1.5-3.1,2.3-3.2
			c0,0-0.1,0-0.1,0C1014.2,588.2,1014.4,587.9,1014.7,587.6z"/>
		<path fill="#EEE9AA" stroke="#EEE9AA" stroke-width="3.4149" stroke-miterlimit="10" d="M961.7,627.8c1.2-0.2,2.4-0.5,3.6-0.9
			c5.3-1.8,10-4.6,15.3-6.5c5.7-2,12.1-3,16.7-6.2c4.9-3.4,6.7-9.3,4.5-14.1c-3.1,1-6.4,1.8-9.4,2.9c-2.2,0.8-3.6,1.8-6.1,2.1
			c-2.5,0.3-5,0-7.4-0.7c-0.7-0.2-6.3-2.5-5.8-3.2c-4,5.7-10.7,10-18.3,11.7c-7.6,1.7-16,0.8-22.8-2.5c-5.5,4.4-12.7,7.4-20.3,8.6
			c-3.6,0.6-6.9,0.7-10.5,0c-2.4-0.4-8-1.5-8.4-4c0.9,4.5,4.3,8.7,9.1,11.4c5,2.8,12.2,2.2,17.9,1.3c4.5-0.7,9.1-1.8,13.7-1.7
			C943.1,626.5,952.4,629.6,961.7,627.8z"/>
		<path fill="#EEEEE0" stroke="#EEEEE0" stroke-width="1.7075" stroke-miterlimit="10" d="M986.3,611c5.8-0.7,11.8-3,14.3-7.1
			c1.7-3,1.3-6.5-0.2-9.5c-1.5-3-4-5.6-6.5-8.2c-1.9-1.9-3.7-3.9-6.2-5.3s-5.7-2.3-8.8-1.8c-3,0.5-5.6,2.2-7.2,4.3s-2.4,4.4-3,6.8
			c-1,3.7-1.6,7.6-0.7,11.3s3.8,7.2,8.1,8.8C979.3,611.3,982.9,611.4,986.3,611z"/>
		<path fill="#EEEEE0" d="M957,620.5c-6.8,0.6-14.7-0.5-19.6-4.3c-3.5-2.7-4.8-6.5-4.7-9.9c0.1-3.5,1.6-6.7,3-9.9
			c1.1-2.4,2.2-4.9,4.2-6.9c2-2,5.1-3.7,8.8-3.8c3.6-0.2,7.3,1.1,10.2,2.9c2.8,1.8,4.9,4.1,6.8,6.4c3,3.7,5.7,7.6,6.5,11.6
			c0.8,4.1-0.5,8.4-4.6,10.9C965,619.3,961,620.2,957,620.5z"/>
		<path fill="#EEEEE0" d="M912.9,622.8c6.6-1.1,13.7-3.9,17-8.6c2.4-3.3,2.5-7,1.3-10.1c-1.2-3.1-3.6-5.7-5.9-8.3
			c-1.8-1.9-3.6-3.9-6.1-5.3s-6-2.1-9.5-1.4c-3.4,0.7-6.5,2.8-8.7,5.1c-2.1,2.3-3.4,4.9-4.4,7.4c-1.7,4-3,8.2-2.5,12.1
			c0.5,3.9,3.1,7.4,7.7,8.8C905,623.6,909,623.4,912.9,622.8z"/>
		<path fill="#EEEEE0" d="M1009.1,577.5c2.7-2,6.2-2,9.2,0c3,2,5.4,6,6.4,10.5c-1.8-3-4.4-4.9-7-5.2s-5.2,1-6.9,3.5"/>
		<path fill="#EEEEE0" d="M877.2,597.4c-3.4-0.1-6.1,2-7.2,5.5s-0.5,8.3,1.5,12.6c-0.4-3.6,0.4-6.7,2.3-8.6c1.8-1.8,4.7-2.2,7.6-1.1
			"/>
		<path fill="#EEEEE0" d="M899.2,610.4c-4,1.6-5.8,5.5-4.7,10.2s5.1,10.2,10.6,14.5c-3-4.1-4.2-8.3-3.3-11.4c0.9-3.1,4-5,8.2-5.2"/>
		<path fill="#EEEEE0" d="M999.5,595.6c4.3,0.4,7.1,3.5,7.5,8.3c0.4,4.8-1.7,11.1-5.5,16.6c1.6-4.7,1.4-9-0.4-11.7
			c-1.8-2.7-5.3-3.6-9.3-2.6"/>
		<path fill="#EEEEE0" d="M951.2,594.4c8.8,1.4,15,8,16.5,17.5c1.5,9.5-1.9,21.6-8.9,32c2.5-9,1.6-17.6-2.4-23.2
			c-4.1-5.5-11.2-7.9-19.3-6.4"/>
		<g>
			<path fill="#EEEEE0" d="M886.9,567.1l0.2-1.3l0.3-1.3l0.4-1.3l0.5-1.3l0.6-1.2l0.7-1.2l0.8-1.1l0.9-1.1l0.9-1l1-1l1.1-0.9
				l1.2-0.8l1.2-0.7l1.3-0.7l1.4-0.6l1.4-0.5l1.3-0.3c0.5-0.1,1-0.2,1.6-0.3l1.5-0.1l1.5,0l1.5,0.1l1.5,0.2l1.5,0.3l1.5,0.4l1.4,0.5
				l1.4,0.6l1.4,0.7l1.3,0.8l1.3,0.9l1.2,1l1.1,1.1l1.1,1.2l-6.9,2.6l-0.1-2.1l0.1-2.1c0.1-0.7,0.2-1.4,0.3-2l0.5-2l0.7-1.9l0.8-1.9
				l1-1.8l1.1-1.7l1.3-1.6l1.4-1.5l1.5-1.4c0.5-0.4,1.1-0.8,1.6-1.3l1.8-1.1l1.9-1l2-0.8l2-0.6l1.9-0.3c0.8-0.1,1.6-0.2,2.3-0.2
				l2.1,0l2.1,0.2c0.7,0.1,1.4,0.2,2,0.4l2,0.6l1.9,0.7l1.9,0.9l1.8,1c0.6,0.4,1.1,0.8,1.7,1.2l1.6,1.3l1.5,1.4l1.3,1.6
				c0.4,0.6,0.8,1.1,1.2,1.7l1,1.8l0.9,1.9l-6.3-1.2c1.4-1.3,2.9-2.5,4.6-3.5c1.7-1,3.5-1.9,5.4-2.5c1-0.3,2-0.5,3-0.7l0.8-0.1
				l0.5,0l0.3,0c0.2,0,0.4,0,0.7,0l0.9,0c2.1,0.1,4.1,0.6,6,1.5c1.9,0.9,3.6,2.2,4.8,3.8c0.3,0.4,0.6,0.8,0.9,1.3l0.2,0.3l0.1,0.2
				l0,0l0.1,0.1l0,0l0,0l0,0.1l0.2,0.6c0.4,1.1,0.6,2.1,0.7,3c0.1,2-0.3,3.9-1.3,5.6c-0.5,0.8-1.1,1.5-1.8,2.1
				c-0.7,0.6-1.5,1-2.3,1.3c0.7-0.5,1.3-1.2,1.7-1.8c0.4-0.7,0.7-1.5,0.9-2.2c0.2-0.8,0.2-1.5,0.2-2.3c0-0.8-0.2-1.5-0.4-2.2
				c-0.2-0.7-0.5-1.3-0.9-1.8l-0.4-0.5l0-0.1l0,0l0,0c0-0.1,0.1,0.1,0,0.1l0,0l-0.1-0.1l-0.2-0.2c-0.2-0.3-0.5-0.5-0.7-0.7
				c-1.1-0.9-2.3-1.5-3.6-1.8c-1.3-0.3-2.7-0.4-4.1-0.3c-0.3,0.1-0.5,0.1-1,0.2l-0.3,0.1l0,0l0,0c0.2,0,0,0,0.1,0l0,0l-0.1,0l-0.1,0
				l-0.5,0.1c-0.7,0.2-1.3,0.4-1.9,0.7c-1.3,0.6-2.5,1.4-3.6,2.3c-1.1,0.9-2.2,1.9-3.2,3l-3.5,3.8l-2.8-5l-0.7-1.2l-0.8-1.1
				c-0.3-0.3-0.6-0.7-0.9-1l-0.9-1l-1-0.9l-1.1-0.8c-0.4-0.2-0.8-0.5-1.2-0.7l-1.2-0.6l-1.2-0.5l-1.3-0.4l-1.3-0.3
				c-0.4-0.1-0.9-0.1-1.3-0.2l-1.3-0.1l-1.3,0c-0.4,0-0.7,0.1-1.1,0.1l-0.8,0.2l-0.4,0.1l-0.2,0l-0.1,0l-0.1,0l0,0l0,0
				c0.1,0-0.2,0,0.2,0l-1.2,0.3l-1.2,0.5l-1.2,0.6l-1.1,0.7c-0.4,0.3-0.7,0.5-1.1,0.8l-1,0.9l-1,1l-0.9,1l-0.8,1.1l-0.7,1.2
				l-0.6,1.2l-0.5,1.2l-0.4,1.3c-0.1,0.4-0.2,0.9-0.3,1.3l-0.2,1.3l-0.1,1.3l-0.5,11.2l-6.4-8.6l-0.6-0.8c-0.2-0.3-0.4-0.5-0.7-0.8
				l-0.7-0.7l-0.8-0.7l-0.8-0.6l-0.9-0.6l-0.9-0.5l-1-0.5l-1-0.4l-1-0.4l-1-0.3l-1.1-0.2l-1.1-0.2l-1.1-0.1c-0.3,0-0.7,0-1,0l-0.6,0
				l-0.3,0l-0.2,0l-0.1,0l0-0.1l0-0.1h0c0,0-0.1,0.1,0.1,0l-1.1,0.2l-1.1,0.2l-1.1,0.3l-1.1,0.4l-1.1,0.5l-1,0.5l-1,0.6l-1,0.7
				l-1,0.7l-0.9,0.8l-0.9,0.9l-0.8,0.9l-0.8,1l-0.7,1l-0.6,1.1L886.9,567.1z"/>
		</g>
		<g>
			<path fill="#EEEEE0" d="M949.4,500.1c0.7,0.1,1.3,0.3,1.9,0.5c0.6,0.2,1.2,0.4,1.8,0.7c0.6,0.3,1.2,0.6,1.8,0.9
				c0.6,0.3,1.1,0.7,1.7,1l1.6,1.2l1.5,1.3c1,0.9,1.9,1.9,2.7,2.9l1.2,1.6l1.1,1.7c0.3,0.6,0.7,1.2,1,1.8c0.3,0.6,0.6,1.2,0.8,1.8
				l0.7,1.9l0.6,1.9l0.5,2c0.1,0.7,0.2,1.3,0.3,2l-9.7-2.2c0.4-0.6,0.8-1.1,1.2-1.6c0.4-0.5,0.8-1,1.3-1.5c0.5-0.5,0.9-1,1.4-1.4
				c0.5-0.5,1-0.9,1.5-1.3c0.5-0.4,1-0.8,1.6-1.2c0.5-0.4,1.1-0.7,1.6-1.1c0.6-0.3,1.1-0.7,1.7-1l1.8-0.8c0.6-0.2,1.2-0.5,1.8-0.7
				c0.6-0.2,1.2-0.4,1.9-0.5c0.6-0.1,1.3-0.3,1.9-0.4c0.6-0.1,1.3-0.2,1.9-0.2c0.6,0,1.3-0.1,1.9-0.1c0.6,0,1.3,0.1,1.9,0.1
				c0.6,0.1,1.3,0.2,1.9,0.3c0.6,0.2,1.2,0.3,1.8,0.5c-0.5,0.4-1.1,0.7-1.6,1c-0.5,0.3-1,0.7-1.5,1c-0.5,0.3-0.9,0.7-1.4,1
				c-0.5,0.3-0.9,0.7-1.3,1c-0.4,0.3-0.9,0.7-1.3,1c-0.4,0.4-0.8,0.7-1.2,1c-0.4,0.4-0.8,0.7-1.2,1c-0.4,0.3-0.7,0.7-1.1,1l-1.1,1
				c-0.3,0.4-0.7,0.7-1,1.1c-0.3,0.4-0.7,0.7-1,1.1c-0.3,0.4-0.6,0.7-0.9,1.1c-0.3,0.4-0.6,0.7-0.9,1.1c-0.3,0.4-0.6,0.8-0.9,1.1
				c-0.3,0.4-0.5,0.8-0.8,1.1c-0.2,0.4-0.5,0.8-0.8,1.2l-7.3,10.9l-2.4-13.1c-0.1-0.5-0.2-1-0.2-1.5c-0.1-0.5-0.2-1-0.3-1.5
				l-0.3-1.5l-0.3-1.5c-0.1-0.5-0.3-1-0.4-1.5c-0.2-0.5-0.3-1-0.4-1.5l-1-3c-0.2-0.5-0.4-1-0.6-1.5c-0.2-0.5-0.4-1-0.6-1.5
				c-0.4-1-0.9-2-1.3-3.1l-0.7-1.6c-0.3-0.5-0.5-1-0.8-1.6c-0.3-0.5-0.5-1.1-0.8-1.6C950,501.2,949.7,500.7,949.4,500.1z"/>
		</g>
		<g>
			<path fill="#EEEEE0" d="M890,530.8c0.4-0.3,0.8-0.5,1.3-0.7c0.4-0.2,0.9-0.4,1.3-0.5c0.5-0.2,0.9-0.3,1.4-0.4
				c0.5-0.1,0.9-0.2,1.4-0.3c0.5-0.1,1-0.1,1.4-0.2c0.5-0.1,1-0.1,1.5-0.1c1,0,2,0,3,0.2c0.5,0.1,1,0.2,1.5,0.3
				c0.5,0.1,1,0.2,1.5,0.4c0.5,0.1,1,0.3,1.4,0.5c0.5,0.2,0.9,0.4,1.4,0.6c0.9,0.4,1.8,0.9,2.7,1.5c0.9,0.6,1.7,1.3,2.5,2l-6.9,2.8
				c0-1.1,0.2-2.2,0.4-3.3c0.1-0.5,0.2-1.1,0.4-1.6c0.2-0.5,0.3-1,0.5-1.5c0.2-0.5,0.4-1,0.6-1.5c0.2-0.5,0.4-1,0.7-1.4
				c0.5-0.9,1.1-1.8,1.7-2.6c0.3-0.4,0.6-0.8,1-1.2c0.3-0.4,0.7-0.8,1-1.1c0.4-0.4,0.7-0.7,1.1-1.1c0.4-0.3,0.8-0.7,1.2-1
				c0.8-0.6,1.7-1.2,2.6-1.6c0.5-0.2,0.9-0.4,1.4-0.6c0.5-0.2,1-0.4,1.5-0.5c-0.2,0.5-0.4,0.9-0.6,1.4l-0.6,1.3
				c-0.4,0.9-0.7,1.7-1,2.6c-0.2,0.4-0.3,0.8-0.5,1.2c-0.2,0.4-0.3,0.8-0.5,1.2c-0.2,0.4-0.3,0.8-0.4,1.2l-0.4,1.2
				c-0.1,0.4-0.2,0.8-0.4,1.2c-0.1,0.4-0.2,0.8-0.3,1.2l-0.3,1.2c-0.1,0.4-0.2,0.8-0.2,1.2c-0.1,0.4-0.1,0.8-0.2,1.1
				c-0.1,0.4-0.1,0.8-0.2,1.1l-0.1,1.1l-0.1,1.1l-0.7,8.3l-6.3-5.5c-0.3-0.2-0.5-0.5-0.8-0.7l-0.8-0.7c-0.3-0.2-0.5-0.5-0.8-0.7
				c-0.3-0.2-0.6-0.4-0.9-0.6c-0.3-0.2-0.6-0.4-0.9-0.6c-0.3-0.2-0.6-0.4-0.9-0.6c-0.6-0.4-1.3-0.8-2-1.1c-0.3-0.2-0.7-0.4-1-0.5
				c-0.4-0.2-0.7-0.4-1.1-0.5c-0.7-0.3-1.5-0.7-2.3-1c-0.8-0.3-1.6-0.6-2.4-0.9l-1.3-0.5C890.9,531.1,890.4,531,890,530.8z"/>
		</g>
		<path fill="#EEE9AA" stroke="#EEE9AA" stroke-width="5.8413" stroke-miterlimit="10" d="M236,576.3c-0.3,6,20,11.4,45.2,12.1
			c25.2,0.7,45.9-3.6,46.2-9.5c0.3-6-20-11.4-45.2-12.1C256.9,566,236.2,570.3,236,576.3z"/>
		<path fill="#EEEEE0" stroke="#EEE9AA" stroke-width="1.7075" stroke-miterlimit="10" d="M231.3,600.4c-7.2-1.5-15.1-4.9-19.2-9.9
			c-2.9-3.6-3.3-7.4-2.3-10.6c1-3.2,3.3-5.7,5.7-8.3c1.7-1.9,3.5-3.9,6.1-5.1c2.6-1.3,6.3-1.9,10.1-0.9c3.8,0.9,7.3,3.2,9.8,5.8
			c2.5,2.5,4.1,5.3,5.5,8c2.2,4.3,4,8.7,3.8,12.7c-0.2,4-2.6,7.6-7.5,8.8C239.9,601.7,235.6,601.3,231.3,600.4z"/>
		<path fill="#EEEEE0" stroke="#EEE9AA" stroke-width="1.7075" stroke-miterlimit="10" d="M332.8,613.1c-7.2-1.5-15.1-4.9-19.2-9.9
			c-2.9-3.6-3.3-7.4-2.3-10.6c1-3.2,3.3-5.7,5.7-8.3c1.7-1.9,3.5-3.9,6.1-5.1s6.3-1.9,10.1-0.9c3.8,0.9,7.3,3.2,9.8,5.8
			c2.5,2.5,4.1,5.3,5.5,8c2.2,4.3,4,8.7,3.8,12.7c-0.2,4-2.6,7.6-7.5,8.8C341.4,614.4,337.1,614,332.8,613.1z"/>
		<path fill="#EEE8AA" stroke="#EEE8AA" stroke-width="5.8413" stroke-miterlimit="10" d="M304.2,569.6c-2.5,8.2,3.7,17.2,15.4,22.6
			c-14.5,3.6-25.6,11-29.2,19.6c0.8-9.9-10-19.9-26.1-24.3C281.7,585.3,296.8,578.5,304.2,569.6z"/>
		<path fill="#EEE8AA" d="M230.6,576c18.1-0.7,35.2-5.3,46.1-12.3c-1,8.1,3.3,16.4,11.9,23.5c-16.2,4.6-29.6,11.4-38.5,19.5
			C254.6,595.9,247,583.9,230.6,576z"/>
		<path fill="#EEE8AA" d="M335.7,590.7c0.9-2.7,1.8-5.6,1.2-8.3c-0.8-4.1-3.3-6-8.4-5.2c-5.5,0.9-10.7,2.9-15,5.7
			c-1,0.7-2.1,1.4-2.7,2.4c-0.6,0.9-0.9,2.1-0.3,3.1c1,1.7,3.6,2.1,5.9,2.7c2.8,0.7,6.3,1.9,8.3,3.7c1.6,1.5,2.4,4.1,3.2,6.3
			c1.9,5.1,2,10.6,0.1,15.7c4.7,2.5,11.8,2.2,16.9,0.2c5.7-2.3,8.3-6.6,8.6-11.4c-0.2,2.8-9.6,1.4-11.3,0.8
			c-3.7-1.2-6.5-3.9-7.3-6.9c-1.9-6.7,3-11.3,7.6-16.3c-2.4-2.9-6.5-5-11-5.6"/>
		<path fill="#EEE9AA" d="M210,587.6c4.5,0.9,9.1,0.7,13.2-1.2c0.1-0.1,0.2-0.2,0.3-0.3c2.8-2.8,5.5-5.7,6.4-9.7
			c0.7-3.3,0.1-7-2.5-9.3c-0.4-0.4-1.7-1.7-2.3-1.6c2.1-0.1,3.9-0.2,5.9,0.2c2.1,0.4,4.1,0.9,6,1.8c1.8,0.9,2.8,2.3,4.3,3.7
			c1,0.9,2.1,2,2.2,3.4c0,1.2-0.9,2.3-1.7,3.2c-0.7,0.8-2.3,1.8-1.5,2.9c-4.9,2.1-9.3,4.4-12.8,8.6c-1.1,1.3-2,2.7-2.7,4.2
			c-0.4,0.9-1,3-1.8,3.4c-0.4,0.2-1,0.2-1.5,0.2c-2.4-0.4-4-2.5-5.8-3.8c-0.9-0.6-2-0.8-2.9-1.3c-0.8-0.5-1.5-3.1-2.3-3.2
			c0,0,0.1,0,0.1,0C210.5,588.2,210.3,587.9,210,587.6z"/>
		<path fill="#EEE8AA" stroke="#EEE8AA" stroke-width="3.4149" stroke-miterlimit="10" d="M263,627.8c-1.2-0.2-2.4-0.5-3.6-0.9
			c-5.3-1.8-10-4.6-15.3-6.5c-5.7-2-12.1-3-16.7-6.2c-4.9-3.4-6.7-9.3-4.5-14.1c3.1,1,6.4,1.8,9.4,2.9c2.2,0.8,3.6,1.8,6.1,2.1
			c2.5,0.3,5,0,7.4-0.7c0.7-0.2,6.3-2.5,5.8-3.2c4,5.7,10.7,10,18.3,11.7c7.6,1.7,16,0.8,22.8-2.5c5.5,4.4,12.7,7.4,20.3,8.6
			c3.6,0.6,6.9,0.7,10.5,0c2.4-0.4,8-1.5,8.4-4c-0.9,4.5-4.3,8.7-9.1,11.4c-5,2.8-12.2,2.2-17.9,1.3c-4.5-0.7-9.1-1.8-13.7-1.7
			C281.6,626.5,272.3,629.6,263,627.8z"/>
		<path fill="#EEEEE0" stroke="#EEEEE0" stroke-width="1.7075" stroke-miterlimit="10" d="M238.3,611c-5.8-0.7-11.8-3-14.3-7.1
			c-1.7-3-1.3-6.5,0.2-9.5c1.5-3,4-5.6,6.5-8.2c1.9-1.9,3.7-3.9,6.2-5.3c2.5-1.4,5.7-2.3,8.8-1.8c3,0.5,5.6,2.2,7.2,4.3
			c1.6,2.1,2.4,4.4,3,6.8c1,3.7,1.6,7.6,0.7,11.3c-1,3.7-3.8,7.2-8.1,8.8C245.3,611.3,241.8,611.4,238.3,611z"/>
		<path fill="#EEEEE0" d="M267.7,620.5c6.8,0.6,14.7-0.5,19.6-4.3c3.5-2.7,4.8-6.5,4.7-9.9c-0.1-3.5-1.6-6.7-3-9.9
			c-1.1-2.4-2.2-4.9-4.2-6.9c-2-2-5.1-3.7-8.8-3.8c-3.6-0.2-7.3,1.1-10.2,2.9c-2.8,1.8-4.9,4.1-6.8,6.4c-3,3.7-5.7,7.6-6.5,11.6
			s0.5,8.4,4.6,10.9C259.7,619.3,263.7,620.2,267.7,620.5z"/>
		<path fill="#EEEEE0" d="M311.9,622.7c-6.6-1-13.7-3.8-17.1-8.5c-2.4-3.3-2.4-7.1-1.2-10.2c1.2-3.1,3.7-5.8,6.1-8.5
			c1.8-2,3.6-4,6.2-5.4s6-2.2,9.6-1.5c3.5,0.7,6.6,2.7,8.7,5c2.1,2.3,3.3,4.9,4.4,7.5c1.7,4.1,3,8.3,2.4,12.2
			c-0.5,3.9-3.2,7.6-7.9,9C319.8,623.4,315.8,623.3,311.9,622.7z"/>
		<path fill="#EEEEE0" d="M215.6,577.5c-2.7-2-6.2-2-9.2,0c-3,2-5.4,6-6.4,10.5c1.8-3,4.4-4.9,7-5.2s5.2,1,6.9,3.5"/>
		<path fill="#EEEEE0" d="M325.5,610.4c4,1.6,5.8,5.5,4.7,10.2s-5.1,10.2-10.6,14.5c3-4.1,4.2-8.3,3.3-11.4c-0.9-3.1-4-5-8.2-5.2"/>
		<path fill="#EEEEE0" d="M225.2,595.6c-4.3,0.4-7.1,3.5-7.5,8.3c-0.4,4.8,1.7,11.1,5.5,16.6c-1.6-4.7-1.4-9,0.4-11.7
			c1.8-2.7,5.3-3.6,9.3-2.6"/>
		<path fill="#EEEEE0" d="M273.5,594.4c-8.8,1.4-15,8-16.5,17.5c-1.5,9.5,1.9,21.6,8.9,32c-2.5-9-1.6-17.6,2.4-23.2
			s11.2-7.9,19.3-6.4"/>
		<g>
			<path fill="#EEEEE0" d="M337.8,567.1l-0.6-1.2l-0.6-1.1l-0.7-1l-0.8-1l-0.8-0.9l-0.9-0.9l-0.9-0.8l-1-0.7l-1-0.7l-1-0.6l-1-0.5
				l-1.1-0.5l-1.1-0.4l-1.1-0.3l-1.1-0.2l-1.1-0.2c0.2,0,0,0,0.1,0h0l0,0.1l0,0l-0.1,0l-0.2,0l-0.3,0l-0.6,0c-0.3,0-0.7,0-1,0
				l-1.1,0.1l-1.1,0.2l-1.1,0.2l-1,0.3l-1,0.4l-1,0.4l-1,0.5l-0.9,0.5l-0.9,0.6l-0.8,0.6l-0.8,0.7l-0.7,0.7
				c-0.2,0.3-0.4,0.5-0.7,0.8l-0.6,0.8l-6.4,8.6l-0.5-11.2l-0.1-1.3l-0.2-1.3c-0.1-0.4-0.2-0.9-0.3-1.3l-0.4-1.3l-0.5-1.2l-0.6-1.2
				l-0.7-1.2l-0.8-1.1l-0.9-1l-1-1l-1-0.9c-0.4-0.3-0.7-0.5-1.1-0.8l-1.1-0.7l-1.2-0.6l-1.2-0.5l-1.2-0.3c0.4,0.1,0.1,0,0.2,0l0,0
				l0,0l-0.1,0l-0.1,0l-0.2,0l-0.4-0.1l-0.8-0.2c-0.4,0-0.7,0-1.1-0.1l-1.3,0l-1.3,0.1c-0.4,0.1-0.9,0.2-1.3,0.2l-1.3,0.3l-1.3,0.4
				l-1.2,0.5l-1.2,0.6c-0.4,0.2-0.8,0.5-1.2,0.7l-1.1,0.8l-1,0.9l-0.9,1c-0.3,0.3-0.6,0.7-0.9,1l-0.8,1.1l-0.7,1.2l-2.8,5l-3.5-3.8
				c-1-1.1-2.1-2.1-3.2-3c-1.1-0.9-2.4-1.7-3.6-2.3c-0.6-0.3-1.3-0.5-1.9-0.7l-0.5-0.1l-0.1,0l-0.1,0l0,0c0,0-0.1,0,0.1,0l0,0l0,0
				l-0.3-0.1c-0.5-0.1-0.7-0.1-1-0.2c-1.3-0.2-2.7,0-4.1,0.3c-1.3,0.3-2.6,1-3.6,1.8c-0.2,0.2-0.5,0.4-0.7,0.7l-0.2,0.2l-0.1,0.1
				l0,0c0,0,0.1-0.2,0-0.1l0,0l0,0l0,0.1l-0.4,0.5c-0.3,0.5-0.7,1.1-0.9,1.8c-0.2,0.7-0.4,1.4-0.4,2.2c0,0.8,0,1.5,0.2,2.3
				c0.2,0.8,0.5,1.5,0.9,2.2c0.4,0.7,1,1.3,1.7,1.8c-0.8-0.3-1.6-0.7-2.3-1.3c-0.7-0.6-1.3-1.3-1.8-2.1c-0.9-1.6-1.4-3.6-1.3-5.6
				c0.1-1,0.3-2,0.7-3l0.2-0.6l0-0.1l0,0l0,0l0.1-0.1l0,0l0.1-0.2l0.2-0.3c0.2-0.5,0.6-0.9,0.9-1.3c1.3-1.6,3-2.9,4.8-3.8
				c1.9-0.9,3.9-1.4,6-1.5l0.9,0c0.3,0,0.5,0,0.7,0l0.3,0l0.5,0l0.8,0.1c1,0.1,2,0.4,3,0.7c1.9,0.6,3.8,1.5,5.4,2.5
				c1.7,1,3.2,2.2,4.6,3.5l-6.3,1.2l0.9-1.9l1-1.8c0.4-0.6,0.8-1.1,1.2-1.7l1.3-1.6l1.5-1.4l1.6-1.3c0.6-0.4,1.1-0.8,1.7-1.2l1.8-1
				l1.9-0.9l1.9-0.7l2-0.6c0.7-0.1,1.4-0.3,2-0.4l2.1-0.2l2.1,0c0.8,0.1,1.6,0.1,2.3,0.2l1.9,0.3l2,0.6l2,0.8l1.9,1l1.8,1.1
				c0.6,0.4,1.1,0.8,1.6,1.3l1.5,1.4l1.4,1.5l1.3,1.6l1.1,1.7l1,1.8l0.8,1.9l0.7,1.9l0.5,2c0.1,0.7,0.2,1.4,0.3,2l0.1,2.1l-0.1,2.1
				l-6.9-2.6l1.1-1.2l1.1-1.1l1.2-1l1.3-0.9l1.3-0.8l1.4-0.7l1.4-0.6l1.4-0.5l1.5-0.4l1.5-0.3l1.5-0.2l1.5-0.1l1.5,0l1.5,0.1
				c0.5,0.1,1,0.2,1.6,0.3l1.3,0.3l1.4,0.5l1.4,0.6l1.3,0.7l1.2,0.7l1.2,0.8l1.1,0.9l1,1l0.9,1l0.9,1.1l0.8,1.1l0.7,1.2l0.6,1.2
				l0.5,1.3l0.4,1.3l0.3,1.3L337.8,567.1z"/>
		</g>
		<g>
			<path fill="#EEEEE0" d="M275.3,500.1c-0.3,0.6-0.6,1.2-0.9,1.7c-0.3,0.6-0.5,1.1-0.8,1.6c-0.2,0.6-0.5,1.1-0.8,1.6l-0.7,1.6
				c-0.5,1-0.9,2.1-1.3,3.1c-0.2,0.5-0.4,1-0.6,1.5c-0.2,0.5-0.4,1-0.6,1.5l-1,3c-0.1,0.5-0.3,1-0.4,1.5c-0.1,0.5-0.3,1-0.4,1.5
				l-0.3,1.5l-0.3,1.5c-0.1,0.5-0.2,1-0.3,1.5c-0.1,0.5-0.1,1-0.2,1.5l-2.4,13.1l-7.3-10.9c-0.3-0.4-0.5-0.8-0.8-1.2
				c-0.3-0.4-0.6-0.8-0.8-1.1c-0.3-0.4-0.6-0.7-0.9-1.1c-0.3-0.4-0.6-0.7-0.9-1.1c-0.3-0.4-0.6-0.7-0.9-1.1c-0.3-0.3-0.7-0.7-1-1.1
				c-0.3-0.3-0.7-0.7-1-1.1l-1.1-1c-0.4-0.3-0.7-0.7-1.1-1c-0.4-0.3-0.8-0.7-1.2-1c-0.4-0.3-0.8-0.6-1.2-1c-0.4-0.3-0.9-0.6-1.3-1
				c-0.4-0.3-0.9-0.6-1.3-1c-0.5-0.3-0.9-0.6-1.4-1c-0.5-0.3-1-0.6-1.5-1c-0.5-0.3-1-0.6-1.6-1c0.6-0.2,1.2-0.4,1.8-0.5
				c0.6-0.1,1.2-0.2,1.9-0.3c0.6-0.1,1.3-0.1,1.9-0.1c0.6,0,1.3,0,1.9,0.1c0.6,0.1,1.3,0.1,1.9,0.2c0.6,0.1,1.3,0.3,1.9,0.4
				c0.6,0.2,1.2,0.3,1.9,0.5c0.6,0.2,1.2,0.4,1.8,0.7l1.8,0.8c0.6,0.3,1.1,0.6,1.7,1c0.5,0.4,1.1,0.7,1.6,1.1
				c0.5,0.4,1.1,0.8,1.6,1.2c0.5,0.4,1,0.9,1.5,1.3c0.5,0.5,0.9,1,1.4,1.4c0.4,0.5,0.9,1,1.3,1.5c0.4,0.5,0.8,1.1,1.2,1.6l-9.7,2.2
				c0.1-0.7,0.2-1.3,0.3-2l0.5-2l0.6-1.9l0.7-1.9c0.3-0.6,0.6-1.2,0.8-1.8c0.3-0.6,0.6-1.2,1-1.8l1.1-1.7l1.2-1.6
				c0.8-1,1.7-2,2.7-2.9l1.5-1.3l1.6-1.2c0.6-0.3,1.1-0.7,1.7-1c0.6-0.3,1.2-0.6,1.8-0.9c0.6-0.3,1.2-0.5,1.8-0.7
				C274,500.4,274.6,500.2,275.3,500.1z"/>
		</g>
		<g>
			<path fill="#EEEEE0" d="M334.7,530.8c-0.5,0.2-0.9,0.3-1.3,0.5l-1.3,0.5c-0.8,0.3-1.6,0.6-2.4,0.9c-0.8,0.3-1.5,0.6-2.3,1
				c-0.4,0.2-0.7,0.4-1.1,0.5c-0.4,0.2-0.7,0.4-1,0.5c-0.7,0.3-1.3,0.7-2,1.1c-0.3,0.2-0.6,0.4-0.9,0.6c-0.3,0.2-0.6,0.4-0.9,0.6
				c-0.3,0.2-0.6,0.4-0.9,0.6c-0.3,0.2-0.5,0.4-0.8,0.7l-0.8,0.7c-0.3,0.2-0.5,0.5-0.8,0.7l-6.3,5.5l-0.7-8.3l-0.1-1.1l-0.1-1.1
				c-0.1-0.4-0.1-0.8-0.2-1.1c-0.1-0.4-0.1-0.8-0.2-1.1c-0.1-0.4-0.1-0.8-0.2-1.2l-0.3-1.2c-0.1-0.4-0.2-0.8-0.3-1.2
				c-0.1-0.4-0.2-0.8-0.4-1.2l-0.4-1.2c-0.1-0.4-0.3-0.8-0.4-1.2c-0.2-0.4-0.3-0.8-0.5-1.2c-0.2-0.4-0.3-0.8-0.5-1.2
				c-0.3-0.8-0.7-1.7-1-2.6L306,519c-0.2-0.5-0.4-0.9-0.6-1.4c0.5,0.1,1,0.3,1.5,0.5c0.5,0.2,0.9,0.4,1.4,0.6c0.9,0.5,1.8,1,2.6,1.6
				c0.4,0.3,0.8,0.6,1.2,1c0.4,0.3,0.7,0.7,1.1,1.1c0.4,0.4,0.7,0.8,1,1.1c0.4,0.4,0.7,0.8,1,1.2c0.6,0.8,1.2,1.7,1.7,2.6
				c0.3,0.5,0.5,0.9,0.7,1.4c0.2,0.5,0.4,1,0.6,1.5c0.2,0.5,0.3,1,0.5,1.5c0.2,0.5,0.3,1.1,0.4,1.6c0.2,1.1,0.3,2.2,0.4,3.3
				l-6.9-2.8c0.8-0.7,1.6-1.4,2.5-2c0.9-0.6,1.8-1.1,2.7-1.5c0.5-0.2,0.9-0.4,1.4-0.6c0.5-0.2,1-0.3,1.4-0.5c0.5-0.1,1-0.3,1.5-0.4
				c0.5-0.1,1-0.2,1.5-0.3c1-0.1,2-0.2,3-0.2c0.5,0,1,0,1.5,0.1c0.5,0.1,1,0.1,1.4,0.2c0.5,0.1,0.9,0.2,1.4,0.3
				c0.5,0.1,0.9,0.3,1.4,0.4c0.5,0.2,0.9,0.3,1.3,0.5C333.9,530.3,334.3,530.5,334.7,530.8z"/>
		</g>
		<g>
			<path fill="#FFFFFF" d="M222.9,598.6c0,0-0.1,0.2-0.3,0.5c-0.2,0.3-0.4,0.7-0.6,1.2c-0.2,0.5-0.5,1.1-0.7,1.7
				c-0.1,0.3-0.2,0.6-0.3,1c-0.1,0.3-0.2,0.7-0.3,1c-0.2,0.7-0.3,1.4-0.4,2.1c0,0.3-0.1,0.7-0.1,1c0,0.3-0.1,0.6-0.1,0.9
				c0,0.5,0,1,0,1.3c0,0.3,0,0.5,0,0.5s-0.1-0.2-0.2-0.5c-0.1-0.3-0.3-0.8-0.4-1.3c-0.1-0.6-0.2-1.3-0.2-2c0-0.4,0-0.7,0.1-1.1
				c0-0.4,0.1-0.8,0.2-1.2c0.1-0.4,0.2-0.8,0.3-1.1c0.1-0.4,0.3-0.7,0.5-1c0.3-0.7,0.7-1.2,1.1-1.7c0.4-0.4,0.8-0.8,1-1
				C222.8,598.7,222.9,598.6,222.9,598.6z"/>
		</g>
		<g>
			<path fill="#FFFFFF" d="M210.2,577.7c0,0-0.1,0-0.4,0.1c-0.2,0.1-0.5,0.2-0.9,0.3c-0.7,0.3-1.6,0.8-2.5,1.3
				c-0.9,0.6-1.6,1.2-2.2,1.8c-0.3,0.3-0.5,0.5-0.7,0.7c-0.2,0.2-0.3,0.3-0.3,0.3s0.1-0.5,0.6-1.2c0.4-0.7,1.2-1.6,2.1-2.2
				c0.9-0.6,2-1,2.8-1.1c0.4-0.1,0.8,0,1,0C210.1,577.7,210.2,577.7,210.2,577.7z"/>
		</g>
		<g>
			<path fill="#FFFFFF" d="M259.7,619.6c0,0,0.1,0.2,0.1,0.5c0.1,0.3,0.2,0.8,0.3,1.4c0.2,1.1,0.4,2.6,0.7,4c0.2,1.5,0.5,2.9,0.7,4
				c0.1,0.6,0.2,1,0.2,1.4c0,0.3,0.1,0.5,0.1,0.5s-0.6-0.6-1.1-1.6c-0.6-1-1.1-2.5-1.4-4.1c-0.3-1.5-0.2-3.1,0-4.3
				C259.4,620.4,259.7,619.6,259.7,619.6z"/>
		</g>
		<g>
			<path fill="#FFFFFF" d="M1013.3,577.7c0,0,0.1,0,0.4-0.1c0.2,0,0.6,0,1,0c0.8,0.1,1.9,0.5,2.8,1.1c0.9,0.6,1.7,1.5,2.1,2.2
				c0.4,0.7,0.6,1.2,0.6,1.2s-0.1-0.1-0.3-0.3c-0.2-0.2-0.4-0.4-0.7-0.7c-0.6-0.5-1.4-1.2-2.2-1.8c-0.8-0.6-1.8-1-2.5-1.3
				c-0.4-0.1-0.7-0.3-0.9-0.3C1013.4,577.8,1013.3,577.7,1013.3,577.7z"/>
		</g>
		<g>
			<path fill="#FFFFFF" d="M1002.5,598.6c0,0,0.2,0.1,0.4,0.3c0.3,0.2,0.7,0.5,1,1c0.4,0.4,0.8,1,1.1,1.7c0.2,0.3,0.3,0.7,0.5,1
				c0.1,0.4,0.2,0.7,0.3,1.1c0.1,0.4,0.2,0.8,0.2,1.2c0.1,0.4,0.1,0.8,0.1,1.1c0,0.7-0.1,1.4-0.2,2c-0.1,0.6-0.3,1-0.4,1.3
				c-0.1,0.3-0.2,0.5-0.2,0.5s0-0.2,0-0.5c0-0.3,0-0.8,0-1.3c0-0.3,0-0.6-0.1-0.9c0-0.3-0.1-0.6-0.1-1c-0.1-0.7-0.2-1.4-0.4-2.1
				c-0.1-0.3-0.2-0.7-0.3-1c-0.1-0.3-0.2-0.7-0.3-1c-0.2-0.6-0.5-1.2-0.7-1.7c-0.2-0.5-0.4-0.9-0.6-1.2
				C1002.6,598.7,1002.5,598.6,1002.5,598.6z"/>
		</g>
		<path fill="#EEEEE0" d="M347.5,597.4c3.4-0.1,6.1,2,7.2,5.5c1.1,3.5,0.5,8.3-1.5,12.6c0.4-3.6-0.4-6.7-2.3-8.6
			c-1.8-1.8-4.7-2.2-7.6-1.1"/>
		<g>
			<g>
				<polygon fill="#EEEEE0" points="274,271.7 147.8,314.5 274,314 239.5,313.8 274,314 308.5,313.8 274,314 400.2,314.5 				"/>
				<line fill="#EEEEE0" x1="308.5" y1="313.8" x2="274" y2="314"/>
				<line fill="#EEEEE0" x1="147.8" y1="314.5" x2="274" y2="314"/>
				<path fill="#EEEEE0" d="M400.2,314.5c0.7-18.5-4.4-35.6-10.5-43.1c-6.1-7.5-12.9-7.7-19.5-7.7c-24.2,0-48.5,0-72.7,0l0.1,0
					c-7.9,0-15.7,0-23.6,0c-7.9,0-15.7,0-23.6,0l0.1,0c-24.2,0-48.5,0-72.7,0c-6.6,0-13.5,0.1-19.5,7.7
					c-6.1,7.5-11.1,24.6-10.5,43.1L274,271.7L400.2,314.5z"/>
				<line fill="#EEEEE0" x1="274" y1="314" x2="239.5" y2="313.8"/>
				<line fill="#EEEEE0" x1="274" y1="314" x2="400.2" y2="314.5"/>
			</g>
			<g>
				<polygon fill="#EEEEE0" points="405.7,271.7 279.5,314.5 405.7,314 371.2,313.8 405.7,314 440.2,313.8 405.7,314 531.9,314.5 
									"/>
				<line fill="#EEEEE0" x1="440.2" y1="313.8" x2="405.7" y2="314"/>
				<line fill="#EEEEE0" x1="279.5" y1="314.5" x2="405.7" y2="314"/>
				<path fill="#EEEEE0" d="M531.9,314.5c0.7-18.5-4.4-35.6-10.5-43.1c-6.1-7.5-12.9-7.7-19.5-7.7c-24.2,0-48.5,0-72.7,0l0.1,0
					c-7.9,0-15.7,0-23.6,0c-7.9,0-15.7,0-23.6,0l0.1,0c-24.2,0-48.5,0-72.7,0c-6.6,0-13.5,0.1-19.5,7.7
					c-6.1,7.5-11.1,24.6-10.5,43.1l126.2-42.9L531.9,314.5z"/>
				<line fill="#EEEEE0" x1="405.7" y1="314" x2="371.2" y2="313.8"/>
				<line fill="#EEEEE0" x1="405.7" y1="314" x2="531.9" y2="314.5"/>
			</g>
			<g>
				<polygon fill="#EEEEE0" points="581.3,271.7 455.1,314.5 581.3,314 546.8,313.8 581.3,314 615.8,313.8 581.3,314 707.5,314.5 
									"/>
				<line fill="#EEEEE0" x1="615.8" y1="313.8" x2="581.3" y2="314"/>
				<line fill="#EEEEE0" x1="455.1" y1="314.5" x2="581.3" y2="314"/>
				<path fill="#EEEEE0" d="M707.5,314.5c0.7-18.5-4.4-35.6-10.5-43.1c-6.1-7.5-12.9-7.7-19.5-7.7c-24.2,0-48.5,0-72.7,0l0.1,0
					c-7.9,0-15.7,0-23.6,0c-7.9,0-15.7,0-23.6,0l0.1,0c-24.2,0-48.5,0-72.7,0c-6.6,0-13.5,0.1-19.5,7.7
					c-6.1,7.5-11.1,24.6-10.5,43.1l126.2-42.9L707.5,314.5z"/>
				<line fill="#EEEEE0" x1="581.3" y1="314" x2="546.8" y2="313.8"/>
				<line fill="#EEEEE0" x1="581.3" y1="314" x2="707.5" y2="314.5"/>
			</g>
			<g>
				<polygon fill="#EEEEE0" points="756.9,271.7 630.7,314.5 756.9,314 722.4,313.8 756.9,314 791.4,313.8 756.9,314 883.1,314.5 
									"/>
				<line fill="#EEEEE0" x1="791.4" y1="313.8" x2="756.9" y2="314"/>
				<line fill="#EEEEE0" x1="630.7" y1="314.5" x2="756.9" y2="314"/>
				<path fill="#EEEEE0" d="M883.1,314.5c0.7-18.5-4.4-35.6-10.5-43.1c-6.1-7.5-12.9-7.7-19.5-7.7c-24.2,0-48.5,0-72.7,0l0.1,0
					c-7.9,0-15.7,0-23.6,0c-7.9,0-15.7,0-23.6,0l0.1,0c-24.2,0-48.5,0-72.7,0c-6.6,0-13.5,0.1-19.5,7.7
					c-6.1,7.5-11.1,24.6-10.5,43.1l126.2-42.9L883.1,314.5z"/>
				<line fill="#EEEEE0" x1="756.9" y1="314" x2="722.4" y2="313.8"/>
				<line fill="#EEEEE0" x1="756.9" y1="314" x2="883.1" y2="314.5"/>
			</g>
		</g>
		<g>
			<g>
				<polygon fill="#EEEEE0" points="467.1,271.7 340.9,314.5 467.1,314 432.6,313.8 467.1,314 501.6,313.8 467.1,314 593.3,314.5 
									"/>
				<line fill="#EEEEE0" x1="501.6" y1="313.8" x2="467.1" y2="314"/>
				<line fill="#EEEEE0" x1="340.9" y1="314.5" x2="467.1" y2="314"/>
				<path fill="#EEEEE0" d="M593.3,314.5c0.7-18.5-4.4-35.6-10.5-43.1c-6.1-7.5-12.9-7.7-19.5-7.7c-24.2,0-48.5,0-72.7,0l0.1,0
					c-7.9,0-15.7,0-23.6,0c-7.9,0-15.7,0-23.6,0l0.1,0c-24.2,0-48.5,0-72.7,0c-6.6,0-13.5,0.1-19.5,7.7
					c-6.1,7.5-11.1,24.6-10.5,43.1l126.2-42.9L593.3,314.5z"/>
				<line fill="#EEEEE0" x1="467.1" y1="314" x2="432.6" y2="313.8"/>
				<line fill="#EEEEE0" x1="467.1" y1="314" x2="593.3" y2="314.5"/>
			</g>
			<g>
				<polygon fill="#EEEEE0" points="598.8,271.7 472.6,314.5 598.8,314 564.3,313.8 598.8,314 633.3,313.8 598.8,314 725,314.5 				
					"/>
				<line fill="#EEEEE0" x1="633.3" y1="313.8" x2="598.8" y2="314"/>
				<line fill="#EEEEE0" x1="472.6" y1="314.5" x2="598.8" y2="314"/>
				<path fill="#EEEEE0" d="M725,314.5c0.7-18.5-4.4-35.6-10.5-43.1c-6.1-7.5-12.9-7.7-19.5-7.7c-24.2,0-48.5,0-72.7,0l0.1,0
					c-7.9,0-15.7,0-23.6,0c-7.9,0-15.7,0-23.6,0l0.1,0c-24.2,0-48.5,0-72.7,0c-6.6,0-13.5,0.1-19.5,7.7
					c-6.1,7.5-11.1,24.6-10.5,43.1l126.2-42.9L725,314.5z"/>
				<line fill="#EEEEE0" x1="598.8" y1="314" x2="564.3" y2="313.8"/>
				<line fill="#EEEEE0" x1="598.8" y1="314" x2="725" y2="314.5"/>
			</g>
			<g>
				<polygon fill="#EEEEE0" points="774.4,271.7 648.2,314.5 774.4,314 739.9,313.8 774.4,314 808.9,313.8 774.4,314 900.6,314.5 
									"/>
				<line fill="#EEEEE0" x1="808.9" y1="313.8" x2="774.4" y2="314"/>
				<line fill="#EEEEE0" x1="648.2" y1="314.5" x2="774.4" y2="314"/>
				<path fill="#EEEEE0" d="M900.6,314.5c0.7-18.5-4.4-35.6-10.5-43.1c-6.1-7.5-12.9-7.7-19.5-7.7c-24.2,0-48.5,0-72.7,0l0.1,0
					c-7.9,0-15.7,0-23.6,0c-7.9,0-15.7,0-23.6,0l0.1,0c-24.2,0-48.5,0-72.7,0c-6.6,0-13.5,0.1-19.5,7.7
					c-6.1,7.5-11.1,24.6-10.5,43.1l126.2-42.9L900.6,314.5z"/>
				<line fill="#EEEEE0" x1="774.4" y1="314" x2="739.9" y2="313.8"/>
				<line fill="#EEEEE0" x1="774.4" y1="314" x2="900.6" y2="314.5"/>
			</g>
			<g>
				<polygon fill="#EEEEE0" points="950,271.7 823.8,314.5 950,314 915.5,313.8 950,314 984.5,313.8 950,314 1076.2,314.5 				"/>
				<line fill="#EEEEE0" x1="984.5" y1="313.8" x2="950" y2="314"/>
				<line fill="#EEEEE0" x1="823.8" y1="314.5" x2="950" y2="314"/>
				<path fill="#EEEEE0" d="M1076.2,314.5c0.7-18.5-4.4-35.6-10.5-43.1c-6.1-7.5-12.9-7.7-19.5-7.7c-24.2,0-48.5,0-72.7,0l0.1,0
					c-7.9,0-15.7,0-23.6,0c-7.9,0-15.7,0-23.6,0l0.1,0c-24.2,0-48.5,0-72.7,0c-6.6,0-13.5,0.1-19.5,7.7
					c-6.1,7.5-11.1,24.6-10.5,43.1L950,271.7L1076.2,314.5z"/>
				<line fill="#EEEEE0" x1="950" y1="314" x2="915.5" y2="313.8"/>
				<line fill="#EEEEE0" x1="950" y1="314" x2="1076.2" y2="314.5"/>
			</g>
		</g>
		<g>
			<path fill="#FFFFFF" d="M901,274.3c0,0-45.9,0.3-114.7,0.6c-68.9,0.3-160.7,0.7-252.5,1.2c-23,0.1-45.9,0.2-68.5,0.4
				c-22.6,0.1-44.8,0.2-66.4,0.3c-10.8,0-21.3,0-31.7-0.1c-10.4,0-20.5,0-30.4-0.1c-19.7-0.2-38.4-0.3-55.6-0.4
				c-17.2-0.1-33-0.4-47-0.6c-7-0.1-13.5-0.2-19.6-0.3c-6.1-0.1-11.6-0.2-16.6-0.3c-10-0.2-18.2-0.3-23.6-0.5
				c-5.4-0.1-8.5-0.2-8.5-0.2v-0.5c0,0,3.1-0.1,8.5-0.2c5.4-0.1,13.4-0.3,23.4-0.5c5-0.1,10.6-0.2,16.7-0.3
				c6.1-0.1,12.6-0.2,19.6-0.3c14-0.2,29.8-0.5,47-0.6c17.2-0.1,35.9-0.3,55.6-0.4c9.9-0.1,20-0.1,30.4-0.1c10.4,0,20.9,0,31.7-0.1
				c21.5,0.1,43.8,0.2,66.4,0.3c22.6,0.1,45.6,0.2,68.5,0.4c91.8,0.4,183.6,0.8,252.5,1.2c68.9,0.4,114.7,0.6,114.7,0.6V274.3z"/>
		</g>
		<g>
			<path fill="#FFFFFF" d="M950,273.9c0,0,6.5-0.2,16.4-0.5c4.9-0.1,10.6-0.3,16.8-0.4c6.2-0.1,12.7-0.3,19.3-0.4
				c3.3-0.1,6.6-0.2,9.8-0.3c3.2-0.1,6.4-0.2,9.5-0.2c3.1,0,6,0,8.9,0.1c2.8,0.1,5.5,0.2,7.9,0.3c2.5,0.1,4.7,0.3,6.7,0.4
				c2,0.1,3.8,0.3,5.2,0.4c2.9,0.3,4.6,0.5,4.6,0.5v0.4c0,0-1.7,0.2-4.6,0.5c-1.4,0.1-3.2,0.3-5.2,0.4c-2,0.1-4.3,0.3-6.7,0.4
				c-2.5,0.1-5.1,0.2-8,0.3c-2.8,0.1-5.8,0.1-8.9,0.1c-3.1,0-6.3-0.1-9.5-0.2c-3.2-0.1-6.5-0.2-9.8-0.3c-6.6-0.1-13.1-0.3-19.3-0.4
				c-6.2-0.1-11.8-0.3-16.8-0.4c-9.8-0.3-16.4-0.5-16.4-0.5V273.9z"/>
		</g>
		<line fill="#EEE8AA" stroke="#EEE8AA" stroke-width="10" stroke-miterlimit="10" x1="332" y1="581" x2="892" y2="581"/>
	</g>
	<g>
		<path fill="#FFFFFF" d="M207.6,178.2c0,0,0.1-0.4,0.2-1.1c0.1-0.7,0.3-1.8,0.7-3.1c0.2-0.7,0.4-1.4,0.7-2.2
			c0.1-0.4,0.3-0.8,0.4-1.2c0.2-0.4,0.4-0.8,0.5-1.3c0.7-1.8,1.8-3.7,3.1-5.7c1.3-2,3-4,5.1-5.9c2-1.9,4.4-3.7,7-5.2
			c2.6-1.5,5.5-2.9,8.5-3.9c3-1,6.2-1.7,9.4-2.2c3.2-0.4,6.4-0.6,9.5-0.5c3.1,0.1,6.2,0.4,9.2,0.9c2.9,0.5,5.7,1.2,8.3,2.1
			c2.6,0.8,5,1.8,7.1,2.8c4.3,2,7.6,4.2,9.8,5.7c1.1,0.8,1.9,1.5,2.5,1.9c0.6,0.5,0.9,0.7,0.9,0.7l-0.1,0.2c0,0-0.3-0.2-0.9-0.6
			c-0.6-0.4-1.5-1-2.7-1.7c-2.3-1.4-5.7-3.2-10-4.9c-4.3-1.7-9.5-3.2-15.2-4.1c-5.7-0.8-11.9-1-18-0.1c-6.1,0.8-12.1,2.7-17.1,5.5
			c-2.5,1.4-4.8,3-6.8,4.7c-2,1.7-3.7,3.5-5.1,5.4c-1.4,1.8-2.5,3.6-3.4,5.3c-0.2,0.4-0.4,0.8-0.6,1.2c-0.2,0.4-0.4,0.8-0.5,1.2
			c-0.3,0.7-0.6,1.4-0.9,2.1c-0.2,0.6-0.5,1.2-0.6,1.7c-0.2,0.5-0.3,0.9-0.4,1.3c-0.2,0.7-0.3,1.1-0.3,1.1L207.6,178.2z"/>
	</g>
</g>
<text transform="matrix(1 0 0 1 541.4736 604.2715)" fill="#EEE8AA" font-family="'FFFTusj-Bold'" font-size="12">Monica M Raffaelli 2015</text>
</svg>
